<svg xmlns="http://www.w3.org/2000/svg" viewBox="0 0 44.21 44.21"><defs><style>.cls-1{fill:#453a60;}</style></defs><title>Asset 1</title><g id="Layer_2" data-name="Layer 2"><g id="Layer_1-2" data-name="Layer 1"><path class="cls-1" d="M11.34,7.53,14,14.3h.34V2a2,2,0,0,0-2-2H0V.34L6.77,3A8,8,0,0,1,11.34,7.53Z"/><path class="cls-1" d="M26.29,7.53l2.62,6.77h.34V2a2,2,0,0,0-2-2H15V.34L21.72,3A8,8,0,0,1,26.29,7.53Z"/><path class="cls-1" d="M41.25,7.53l2.62,6.77h.34V2a2,2,0,0,0-2-2H29.91V.34L36.67,3A8,8,0,0,1,41.25,7.53Z"/><path class="cls-1" d="M26.29,22.49l2.62,6.77h.34V17a2,2,0,0,0-2-2H15v.34l6.77,2.62A8,8,0,0,1,26.29,22.49Z"/><path class="cls-1" d="M41.25,22.49l2.62,6.77h.34V17a2,2,0,0,0-2-2H29.91v.34l6.77,2.62A8,8,0,0,1,41.25,22.49Z"/><path class="cls-1" d="M41.25,37.44l2.62,6.77h.34V31.91a2,2,0,0,0-2-2H29.91v.34l6.77,2.62A8,8,0,0,1,41.25,37.44Z"/></g></g></svg>