<svg xmlns="http://www.w3.org/2000/svg" xmlns:xlink="http://www.w3.org/1999/xlink" width="233" height="52" viewBox="0 0 233 52" fill="#453a60">
  <path id="z" d="M15.188.272H.224C.098.272.066.446.182.491l8.077 3.125a9.039 9.039 0 0 1 5.167 5.167l3.126 8.078c.045.117.218.084.218-.04V1.853c0-.874-.708-1.582-1.582-1.582"/>
  <use xlink:href="#z" x="17.395"/>
  <use xlink:href="#z" x="34.79"/>
  <use xlink:href="#z" x="17.395" y="17.396"/>
  <use xlink:href="#z" x="34.79" y="17.396"/>
  <use xlink:href="#z" x="34.79" y="34.793"/>
  <path d="M94.74 18.16h-1.961l-3.64-10.991-.78-2.671h-.024q.024 1.938.024 3.356v10.305h-2.01V2.087h2.979l3.663 10.92q.213.614.473 1.489.284.874.331.969.307-1.206.71-2.482l3.52-10.896h3.026v16.072h-2.009V4.261h-.023q-.45 1.797-.757 2.718z"/>
  <path id="a" d="M113.805 16.954v1.37q-.472.095-1.11.095-1.773 0-1.891-1.512h-.024q-.946 1.56-3.475 1.56-1.749 0-2.789-.899-1.04-.898-1.04-2.505 0-1.773 1.442-2.624.922-.543 3.286-.969l1.536-.26q.567-.094.756-.212.19-.142.19-.473v-.237q0-.992-.497-1.512-.496-.52-1.89-.52-2.648 0-2.648 2.387l-1.891-.213q-.024-1.82 1.3-2.789 1.324-.969 3.333-.969 2.056 0 3.12.78 1.063.78 1.063 2.766v5.72q0 .567.213.803.236.213.756.213zm-3.12-2.458v-2.057q-.307.142-1.3.331l-1.087.237q-1.702.378-2.198.732-.59.402-.59 1.23 0 .945.66 1.465.663.496 1.726.496 1.182 0 1.986-.59.803-.615.803-1.844"/>
  <path id="r" d="M121.69 6.696v1.867q-.354-.07-.732-.07-1.513 0-2.411 1.134-.898 1.134-.898 2.647v5.885h-1.962V6.91h1.962v2.127q.189-.97 1.205-1.678 1.016-.733 2.198-.733.402 0 .638.07"/>
  <path id="i" d="M125.486 6.909v11.25h-1.961V6.91Zm0-4.822v2.505h-1.961V2.087Z"/>
  <path id="n" d="M137.863 11.116v7.043h-1.962v-6.547q0-1.773-.639-2.505-.614-.733-1.914-.733-1.371 0-2.175.945-.803.946-.803 2.34v6.5h-1.962V6.91h1.962v1.678q1.11-1.938 3.616-1.938 2.222 0 3.167 1.441.71 1.088.71 3.026"/>
  <path d="m148.938 14.827 1.418 1.016q-.236.354-.567.709-.307.33-.898.827-.59.473-1.513.78-.921.284-1.985.284-2.435 0-3.9-1.584-1.465-1.583-1.465-4.372 0-2.577 1.489-4.208 1.512-1.63 3.852-1.63 2.458 0 3.758 1.654 1.3 1.63 1.3 4.255v.425h-8.414q.047 1.536.945 2.647.899 1.111 2.624 1.111 2.198 0 3.356-1.914m-3.569-6.595q-1.3 0-2.222.875-.898.85-1.063 2.316h6.31q-.117-1.513-.921-2.34-.78-.85-2.104-.85m22.176 8.059v1.867h-10.046V2.087h2.104v14.205zm29.706 2.151q-2.175 0-3.545-1.584-1.348-1.583-1.348-4.301 0-2.766 1.395-4.326 1.394-1.583 3.569-1.583 1.37 0 2.293.59.945.591 1.323 1.324V2.087h1.962v16.072h-1.962v-1.654q-.378.732-1.323 1.347-.946.59-2.364.59m2.884-2.765q.992-1.111.992-3.168 0-2.056-.969-3.143-.969-1.111-2.482-1.111-1.512 0-2.41 1.11-.899 1.112-.899 3.144 0 2.01.851 3.144.875 1.134 2.411 1.134t2.506-1.11m22.568 3.263 1.843-.308q.426 2.6 3.096 2.6 1.939 0 2.6-.898.686-.898.686-2.978l.023-1.135q-.425.875-1.394 1.418-.97.544-2.222.544-2.245 0-3.616-1.536-1.371-1.537-1.371-4.184 0-2.647 1.394-4.23 1.419-1.584 3.593-1.584 1.206 0 2.151.543.97.544 1.442 1.371V6.909h1.962v10.565q0 1.938-.497 3.073-.543 1.229-1.702 1.749-1.158.543-3.072.543-4.373 0-4.917-3.9m8.414-6.477q0-2.056-.97-3.12-.945-1.064-2.48-1.064-1.514 0-2.412 1.135-.898 1.11-.898 3.025 0 1.891.85 2.979.875 1.087 2.412 1.087 1.583 0 2.529-1.017.969-1.016.969-3.025M88.406 29.15l7.563 10.802q.899 1.276 1.206 1.82h.024q-.048-1.182-.048-2.6V29.15h2.08v16.073h-2.056l-7.516-10.826q-.97-1.394-1.253-1.938h-.024q.048 1.04.048 1.986v10.778h-2.08V29.15Zm13.18 10.495q0-2.695 1.489-4.302 1.489-1.631 3.876-1.631 2.387 0 3.876 1.63 1.49 1.608 1.49 4.303 0 2.67-1.466 4.278-1.466 1.583-3.9 1.583-2.435 0-3.9-1.583-1.465-1.608-1.465-4.278m2.009-.024q0 1.985.921 3.12.922 1.134 2.435 1.134t2.434-1.134q.922-1.135.922-3.12 0-2.01-.922-3.144-.898-1.158-2.434-1.158t-2.458 1.158q-.898 1.135-.898 3.144m9.586-4.161v-1.488h2.175v-4.066l1.962-.425v4.49h2.482v1.49h-2.482v6.973q0 .78.165 1.063.213.378 1.017.378.543 0 1.3-.141v1.536q-.946.236-1.962.236-1.891 0-2.34-1.182-.142-.401-.142-1.087v-7.776zm36.608-1.488-4.94 13.543q-.496 1.395-1.3 1.891-.803.497-2.103.497-.662 0-1.418-.142v-1.584q.78.118 1.276.118.969 0 1.418-.449.355-.354.615-1.134l.496-1.442-3.9-11.298h2.08l2.198 6.807.615 1.962h.023q.331-1.111.686-2.104l2.292-6.665zm7.994 4.396v6.855h-2.103V29.15h5.98q2.103 0 3.261.473 2.695 1.182 2.695 4.136 0 2.6-2.08 3.83-.804.472-1.726.637-.921.142-2.41.142zm0-7.374v5.53h3.853q1.418 0 2.269-.283 1.584-.591 1.584-2.482 0-1.89-1.584-2.482-.85-.283-2.27-.283zm11.596 9.383v-6.405h1.962v6.476q0 1.536.378 2.27.544 1.063 2.175 1.063 1.37 0 2.103-.946.757-.969.757-2.41v-6.453h1.961v11.25h-1.961v-1.654q-1.088 1.938-3.593 1.938-1.844 0-2.813-1.063-.543-.615-.756-1.442-.213-.827-.213-2.624m17.907 5.129q-1.418 0-2.364-.59-.945-.615-1.323-1.348v1.655h-1.962V29.15h1.962v6.476q.378-.732 1.3-1.323.945-.591 2.316-.591 2.175 0 3.57 1.583 1.394 1.56 1.394 4.326 0 2.718-1.371 4.302-1.348 1.583-3.522 1.583m-2.907-9.076q-.97 1.087-.97 3.144 0 2.056.97 3.167.992 1.11 2.529 1.11 1.536 0 2.387-1.134.875-1.134.875-3.143 0-2.033-.899-3.144-.898-1.11-2.41-1.11-1.513 0-2.482 1.11m12.163-7.28v16.073h-1.962V29.15Zm15.888 12.693 1.537.78q-1.419 2.883-4.799 2.883-2.481 0-3.923-1.583-1.418-1.584-1.418-4.278 0-2.695 1.465-4.302 1.49-1.631 3.876-1.631 3.499 0 4.704 3.049l-1.63.85q-.804-2.268-3.074-2.268-1.512 0-2.434 1.134-.898 1.135-.898 3.144 0 1.985.922 3.12.945 1.134 2.41 1.134 2.34 0 3.262-2.032"/>
  <path d="M15.188.272H.224C.098.272.066.446.182.491l8.077 3.125a9.039 9.039 0 0 1 5.167 5.167l3.126 8.078c.045.117.218.084.218-.04V1.853c0-.874-.708-1.582-1.582-1.582"/>
  <use xlink:href="#a" x="65.052"/>
  <use xlink:href="#r" x="17.637" y="27.063"/>
  <use xlink:href="#n" x="52.33"/>
  <use xlink:href="#i" x="82.297"/>
  <use xlink:href="#n" x="82.297"/>
  <use xlink:href="#i" x="76.057" y="27.063"/>
  <use xlink:href="#a" x="17.637" y="27.063"/>
</svg>
