<?xml version="1.0" encoding="UTF-8"?>
<svg width="50px" height="50px" viewBox="0 0 50 50" version="1.1" xmlns="http://www.w3.org/2000/svg" xmlns:xlink="http://www.w3.org/1999/xlink">
    <!-- Generator: Sketch 50.2 (55047) - http://www.bohemiancoding.com/sketch -->
    <title>icon-invoice</title>
    <desc>Created with Sketch.</desc>
    <defs></defs>
    <g id="icon-invoice" stroke="none" stroke-width="1" fill="none" fill-rule="evenodd" stroke-linecap="round" stroke-linejoin="round">
        <g id="finance-invoice-payment-paper-receipt-bill" transform="translate(10.000000, 2.000000)">
            <g id="XMLID_1313_" stroke="#0036D0" stroke-width="3">
                <path d="M34,10.0003566 L34,43 C34,44.6568528 32.6568528,46 31,46 L3,46 C1.3431454,46 0,44.6568528 0,43 L0,3 C0,1.3431458 1.3431454,0 3,0 L23.9998836,0 L34,10.0003566 Z" id="XMLID_1314_"></path>
                <path d="M23.9998836,0 L23.9998836,7 C23.9998836,8.6568546 25.343029,10 26.9998816,10 L34,10" id="XMLID_1315_"></path>
            </g>
            <path d="M6,28 L28,28" id="XMLID_1321_" stroke="#FF5600" stroke-width="3"></path>
            <path d="M6,22 L28,22" id="XMLID_1327_" stroke="#FF5600" stroke-width="3"></path>
            <path d="M6,34 L28,34" id="XMLID_1317_" stroke="#FF5600" stroke-width="3"></path>
            <path d="M6,40 L18,40" id="XMLID_1316_" stroke="#FF5600" stroke-width="3"></path>
            <path d="M16,16 L28,16" id="XMLID_1328_" stroke="#FF5600" stroke-width="3"></path>
            <g id="XMLID_1323_" transform="translate(7.000000, 5.000000)" stroke="#FF5600" stroke-width="2">
                <path d="M4,1.999998 L1.999998,1.999998 C0.8954296,1.999998 0,2.8954278 0,3.9999962 L0,4 C0,5.1045684 0.8954296,5.999998 1.999998,5.999998 L2.000002,5.999998 C3.1045704,5.999998 4,6.8954278 4,7.9999962 L4,8 C4,9.1045684 3.1045704,9.999998 2.000002,9.999998 L0,9.999998" id="XMLID_1325_"></path>
                <path d="M1.999998,0.999998 L1.999998,-1.99999999e-06" id="XMLID_1326_"></path>
                <path d="M2,10.999998 L2,11.999998" id="XMLID_1329_"></path>
            </g>
        </g>
    </g>
</svg>