<svg data-name="Layer 1" xmlns="http://www.w3.org/2000/svg" viewBox="0 0 131.17 153.06"><path d="M126.17 3a4 4 0 0 0-4.9-2.83L62.36 15.93 42 4.21a2 2 0 0 0-2.93 2.25l15.11 56.26a12 12 0 0 1-3.1 11.59l-34.34 34.34L3 100.72A2 2 0 0 0 .07 103l5.22 19.48 3.24 12.08a25 25 0 0 0 24.15 18.54H68L61.85 130l9.66-2.59 5.29 19.77a8 8 0 0 0 7.73 5.93H99.1l-8.27-30.87 9.65-2.59 7.38 27.53a8 8 0 0 0 7.73 5.93h14.57L104 55.5a4 4 0 0 1 2.82-4.9l5.8-1.55a25 25 0 0 0 17.68-30.62zM77.71 34.6A6 6 0 1 1 82 27.25a6 6 0 0 1-4.29 7.35z" fill="#0036d0"/></svg>