<svg data-name="Layer 1" xmlns="http://www.w3.org/2000/svg" viewBox="0 0 614.12 180.96"><path d="M229.72 69.69l.06 25.66 44.22-.11v15.52l-44.23.11.11 41.91h-17.4l-.25-98.6 63.51-.16v15.51zm118.35 67.12c-3 4.8-12.28 17.44-32.44 17.49-20.45 0-34.4-14.42-34.46-36.75C281.12 96.24 295.72 82 315 81.94c22-.06 32.66 15.14 32.72 36.31 0 1.16-.14 3-.14 4.21l-50.31.13c1.18 9.42 7 17.53 19.18 17.49 12.47 0 18-8.45 20.13-11.94zm-50.39-26.55l33.64-.08c-.46-9-7-15.07-16.28-15s-16.95 6.82-17.36 15.08zm77.22-26.88v10.15c1.3-3.48 6.79-11.9 20.13-11.94a20.37 20.37 0 0 1 2.61.14v16.82c-1.59-.14-3.19-.28-4.64-.28-8.85 0-13.77 3.23-16.22 9.47-1.29 3.48-1.86 7.54-1.85 13.63l.08 31h-16.53l-.17-69zm45.42 72.24c.74 6.38 3.66 12.47 15.55 12.44 12.47 0 16.95-5.12 16.92-18.17v-6.24h-.14c-2.32 3.2-8.1 8.87-20.28 8.9-18.71 0-30.49-13.55-30.54-34.58C401.75 96.22 413 81.55 432 81.5c9.57 0 16.83 4.3 20.62 9.22v-7.54h16.53l.16 65.11c0 7.39-.55 12.18-2.13 16.53-4.32 11.62-14.89 16.14-31.86 16.18-20.74 0-31.05-9.2-31.67-24zm15.51-59.92c-11.17 0-17.53 7.73-17.49 21.65s6.43 21.3 17.6 21.27c11 0 17.52-8 17.49-21.36s-6.58-21.59-17.6-21.56zm47.09-12.59h16.53l.09 36.69c0 4.93.17 9.71 1.78 13.34s4.8 6.07 10.6 6.06c10.29 0 14.77-8 14.74-19.18l-.09-37h16.53l.17 69-16.53.05v-8.85c-3.32 5.81-10.7 10.61-20.56 10.64-7 0-12.91-2.14-17-6.63-4.36-4.92-6.11-9.7-6.15-24.92zm119.24 19.27a27.6 27.6 0 0 0-19.45-7.78c-6.53 0-11.3 2.35-11.29 6.84 0 4.93 4.8 5.93 14.52 7.94l8.27 1.86c10.44 2.44 19.88 6.33 19.91 19 0 15.8-14.29 23.38-30.1 23.42-16.53 0-27.72-8.05-31.94-14l11.14-9.89c3.93 5.23 10.62 10.23 21.2 10.23 8.27 0 13-2.93 13-7.86s-3.93-5.65-10.6-7.08l-10.3-2.15c-12-2.58-21.48-7.63-21.52-20.25 0-15.08 14.59-21.5 27.79-21.53 13.78 0 24.38 6 28.89 11zM126.17 3a4 4 0 0 0-4.9-2.83L62.36 15.93 42 4.21a2 2 0 0 0-2.93 2.25l15.11 56.26a12 12 0 0 1-3.1 11.59l-34.34 34.34L3 100.72A2 2 0 0 0 .07 103l5.22 19.48 3.24 12.08a25 25 0 0 0 24.15 18.54H68L61.85 130l9.66-2.59 5.29 19.77a8 8 0 0 0 7.73 5.93H99.1l-8.27-30.87 9.65-2.59 7.38 27.53a8 8 0 0 0 7.73 5.93h14.57L104 55.5a4 4 0 0 1 2.82-4.9l5.8-1.55a25 25 0 0 0 17.68-30.62zM77.71 34.6A6 6 0 1 1 82 27.25a6 6 0 0 1-4.29 7.35z" fill="#fff"/></svg>