<svg width="200" height="200" xmlns="http://www.w3.org/2000/svg"><g transform="translate(45 36)" stroke-width="5" fill="none" fill-rule="evenodd" stroke-linejoin="round"><path d="M.47 115.595c0 6.702 5.438 12.14 12.14 12.14h84.984c6.702 0 12.14-5.438 12.14-12.14V12.405c0-6.702-5.438-12.14-12.14-12.14H12.61C5.908.264.47 5.702.47 12.404v103.19z" stroke="#003CC8"/><path d="M73.313 30.9v5.785m12.14-5.785v5.785" stroke="#FF5600" stroke-linecap="round"/><ellipse stroke="#FF5600" stroke-linecap="round" cx="79.383" cy="33.65" rx="18.211" ry="18.21"/><path d="M24.75 30.9v5.785M36.89 30.9v5.785" stroke="#003CC8" stroke-linecap="round"/><ellipse stroke="#003CC8" stroke-linecap="round" cx="30.821" cy="33.65" rx="18.211" ry="18.21"/><path d="M73.313 91.6v5.785m12.14-5.785v5.785" stroke="#003CC8" stroke-linecap="round"/><ellipse stroke="#003CC8" stroke-linecap="round" cx="79.383" cy="94.35" rx="18.211" ry="18.21"/><path d="M24.75 91.6v5.785M36.89 91.6v5.785" stroke="#FF5600" stroke-linecap="round"/><ellipse stroke="#FF5600" stroke-linecap="round" cx="30.821" cy="94.35" rx="18.211" ry="18.21"/></g></svg>