<?xml version="1.0" encoding="UTF-8"?>
<svg width="50px" height="50px" viewBox="0 0 50 50" version="1.1" xmlns="http://www.w3.org/2000/svg" xmlns:xlink="http://www.w3.org/1999/xlink">
    <!-- Generator: Sketch 50.2 (55047) - http://www.bohemiancoding.com/sketch -->
    <title>icon-accounting</title>
    <desc>Created with Sketch.</desc>
    <defs></defs>
    <g id="icon-accounting" stroke="none" stroke-width="1" fill="none" fill-rule="evenodd" stroke-linecap="round" stroke-linejoin="round">
        <g id="idea-lightbulb-money-solution-bulb-light" transform="translate(10.000000, 2.000000)">
            <path d="M9,41 L21,41" id="XMLID_1512_" stroke="#0036D0" stroke-width="2"></path>
            <g id="XMLID_1714_">
                <path d="M15,0.0199468085 C6.73240042,0.0199468085 0.0302419355,6.58382736 0.0302419355,14.6808511 C0.0302419355,23.2330452 6.01814516,25.8393884 6.01814516,28.3643617 L6.01814516,30.3191489 C6.01814516,31.9385537 7.35857682,33.2513298 9.01209677,33.2513298 L20.9879032,33.2513298 C22.6414232,33.2513298 23.9818548,31.9385537 23.9818548,30.3191489 L23.9818548,28.3643617 C23.9818548,25.8393884 29.9697581,23.2330452 29.9697581,14.6808511 C29.9697581,6.58382736 23.2675996,0.0199468085 15,0.0199468085 Z" id="XMLID_1526_" stroke="#0036D0" stroke-width="3"></path>
                <path d="M8.0141129,33.2513298 L8.0141129,39.855929 C8.0141129,40.6335926 8.32954626,41.3794041 8.89102057,41.9292961 L10.8368366,43.8349646 C11.5854712,44.5681516 12.600836,44.9800532 13.6595626,44.9800532 L16.3404374,44.9800532 C17.399164,44.9800532 18.4145288,44.5681516 19.1631632,43.8349646 L21.1089792,41.9292961 C21.6704537,41.3794041 21.9858871,40.6335926 21.9858871,39.855929 L21.9858871,33.2513298 L8.0141129,33.2513298 Z" id="XMLID_1525_" stroke="#0036D0" stroke-width="3"></path>
                <path d="M8.0141129,37.1609043 L21.9858871,37.1609043" id="XMLID_1524_" stroke="#0036D0" stroke-width="2"></path>
                <g id="XMLID_1527_" transform="translate(13.004032, 9.771277)" stroke="#FF5600" stroke-width="2">
                    <path d="M3.99193748,1.97739362 L1.99596774,1.97739362 C0.893626294,1.97739362 1.99596774e-06,2.85258079 1.99596774e-06,3.9321789 L1.99596774e-06,3.93218281 C1.99596774e-06,5.01178091 0.893626294,5.88696809 1.99596774,5.88696809 L1.99597153,5.88696809 C3.09831298,5.88696809 3.99193728,6.76215526 3.99193728,7.84175336 L3.99193728,7.84175727 C3.99193728,8.92135538 3.09831298,9.79654255 1.99597153,9.79654255 L1.79637097e-06,9.79654255" id="XMLID_1530_"></path>
                    <path d="M1.99596774,0.977393617 L1.99596774,0" id="XMLID_1529_"></path>
                    <path d="M1.99596974,10.7965426 L1.99596974,11.7739362" id="XMLID_1528_"></path>
                </g>
            </g>
        </g>
    </g>
</svg>