<?xml version="1.0" encoding="UTF-8" standalone="no"?>
<svg viewBox="0 0 256 256" width="256" height="256" xmlns="http://www.w3.org/2000/svg">
  <style>
    path {
      fill: #453a60;
    }
    @media (prefers-color-scheme: dark) {
      path {
        fill: #e3e1e7;
      }
    }
  </style>
  <path d="m 65.664782,43.602805 15.40285,39.20199 h 1.968785 V 11.58109 A 11.58109,11.58109 0 0 0 71.455327,0 H 0 V 1.9687853 L 39.20199,17.371635 a 46.324361,46.324361 0 0 1 26.462792,26.23117 m 86.568648,0 15.17123,39.20199 h 1.96878 V 11.58109 A 11.58109,11.58109 0 0 0 157.79235,0 H 86.858177 V 1.9687853 L 125.77064,17.371635 a 46.324361,46.324361 0 0 1 26.46279,26.23117 m 86.62656,0 15.17122,39.20199 H 256 V 11.58109 A 11.58109,11.58109 0 0 0 244.41891,0 H 173.1952 v 1.9687853 l 39.14409,15.4028497 a 46.324361,46.324361 0 0 1 26.5207,26.23117 m -86.62656,86.626555 15.17123,39.20199 h 1.96878 V 98.439267 A 11.58109,11.58109 0 0 0 157.79235,86.858177 H 86.858177 v 1.968785 l 39.201993,15.171228 a 46.324361,46.324361 0 0 1 26.17326,26.23117 m 86.62656,0 15.17122,39.20199 H 256 V 98.439267 A 11.58109,11.58109 0 0 0 244.41891,86.858177 H 173.1952 v 1.968785 l 39.202,15.171228 a 46.324361,46.324361 0 0 1 26.46279,26.23117 m 0,86.56865 L 254.03121,256 H 256 V 184.77629 A 11.58109,11.58109 0 0 0 244.41891,173.1952 H 173.1952 v 1.96879 l 39.202,15.17123 a 46.324361,46.324361 0 0 1 26.46279,26.46279" />
</svg>
