<svg xmlns="http://www.w3.org/2000/svg" width="64" height="78" viewBox="0 0 64 78" fill="#453a60">
  <circle cx="32" cy="33.586" r="32"/>
  <path d="M9.807 56.64 32 78l22.192-21.36"/>
  <path fill="#fff" d="M15.965 17.55v.247l4.911 1.93a5.803 5.803 0 0 1 3.316 3.285l1.928 4.912h.247v-8.922a1.451 1.451 0 0 0-1.45-1.452zm10.88 0v.247l4.876 1.93a5.803 5.803 0 0 1 3.316 3.285l1.9 4.912h.246v-8.922a1.451 1.451 0 0 0-1.45-1.452zm10.816 0v.247l4.904 1.93a5.803 5.803 0 0 1 3.323 3.285l1.9 4.912h.247v-8.922a1.451 1.451 0 0 0-1.451-1.452zM26.846 28.432v.247l4.91 1.9a5.803 5.803 0 0 1 3.28 3.286l1.9 4.91h.247v-8.892a1.451 1.451 0 0 0-1.45-1.451zm10.815 0v.247l4.911 1.9a5.803 5.803 0 0 1 3.316 3.286l1.9 4.91h.247v-8.892a1.451 1.451 0 0 0-1.451-1.451zm0 10.815v.247l4.911 1.9a5.803 5.803 0 0 1 3.316 3.315l1.9 4.913h.247v-8.924a1.451 1.451 0 0 0-1.451-1.45z"/>
</svg>
