<svg data-name="Layer 1" xmlns="http://www.w3.org/2000/svg" viewBox="0 0 177.36 237.1"><path d="M7.7 188v11.32h19.51v6.85H7.69v18.49H.01L0 181.17l28-.08v6.85zm52.23 29.62a16.3 16.3 0 0 1-14.31 7.71c-9 0-15.19-6.36-15.21-16.21 0-9.41 6.42-15.7 14.93-15.72 9.73 0 14.42 6.68 14.44 16 0 .51-.06 1.34-.06 1.85l-22.2.06c.52 4.16 3.09 7.74 8.46 7.72a10 10 0 0 0 8.89-5.27zM37.7 205.9h14.84a6.77 6.77 0 0 0-7.18-6.63c-4.16-.03-7.48 2.98-7.66 6.63zM71.78 194v4.48c.57-1.54 3-5.26 8.88-5.27a9.26 9.26 0 0 1 1.15.06v7.42c-.7-.06-1.41-.12-2-.12-3.9 0-6.07 1.42-7.15 4.18a16.43 16.43 0 0 0-.82 6v13.7h-7.29l-.08-30.46zm20.05 31.92c.32 2.82 1.61 5.5 6.86 5.49 5.5 0 7.48-2.26 7.46-8v-2.75h-.07c-1 1.41-3.57 3.91-9 3.92-8.25 0-13.45-6-13.47-15.26 0-9.6 5-16.07 13.33-16.09a11.35 11.35 0 0 1 9.1 4.07V194h7.3l.07 28.74a20.41 20.41 0 0 1-.94 7.29c-1.91 5.13-6.58 7.12-14.06 7.14-9.16 0-13.71-4.06-14-10.58zm6.84-26.45c-4.93 0-7.74 3.41-7.72 9.56s2.84 9.4 7.77 9.38 7.73-3.53 7.72-9.42-2.91-9.53-7.77-9.52zm20.79-5.55h7.29v16.19a15.34 15.34 0 0 0 .79 5.88c.7 1.6 2.11 2.69 4.67 2.68 4.55 0 6.52-3.54 6.51-8.46v-16.32h7.29l.08 30.46h-7.29v-3.91c-1.47 2.57-4.73 4.69-9.08 4.7a9.74 9.74 0 0 1-7.49-2.92c-1.93-2.18-2.7-4.29-2.72-11zm52.62 8.5a12.16 12.16 0 0 0-8.58-3.42c-2.88 0-5 1-5 3 0 2.17 2.11 2.62 6.41 3.5l3.65.82c4.61 1.08 8.77 2.8 8.78 8.36 0 7-6.31 10.32-13.28 10.34-7.3 0-12.23-3.55-14.1-6.17l4.92-4.36a11.2 11.2 0 0 0 9.36 4.51c3.64 0 5.75-1.29 5.75-3.47s-1.74-2.49-4.68-3.12l-4.55-.95c-5.31-1.14-9.48-3.36-9.49-8.93 0-6.66 6.44-9.49 12.26-9.5 6.08 0 10.76 2.66 12.75 4.83zM147 3a4 4 0 0 0-4.9-2.83L83.21 15.93 62.89 4.21A2 2 0 0 0 60 6.46l15 56.26a12 12 0 0 1-3.11 11.59l-34.3 34.34-13.73-7.93a2 2 0 0 0-2.94 2.28l5.23 19.48 3.23 12.08a25 25 0 0 0 24.14 18.54h35.37L82.7 130l9.66-2.59 5.3 19.77a8 8 0 0 0 7.72 5.93H120l-8.27-30.87 9.66-2.59 7.37 27.53a8 8 0 0 0 7.73 5.93H151L124.87 55.5a4 4 0 0 1 2.83-4.9l5.79-1.55a25 25 0 0 0 17.68-30.62zM98.56 34.6a6 6 0 1 1 4.24-7.35 6 6 0 0 1-4.24 7.35z" fill="#fff"/></svg>