<svg width="200" height="200" xmlns="http://www.w3.org/2000/svg"><g fill="none" fill-rule="evenodd"><path d="M45.526 104.973l-5.116.134V53.67c0-5.664 4.584-10.26 10.232-10.26h97.205c5.648 0 10.232 4.596 10.232 10.26v51.302h-5.116" stroke="#003CC8" stroke-width="5" stroke-linecap="round" stroke-linejoin="round"/><path stroke="#003CC8" stroke-width="5" stroke-linejoin="round" d="M50.642 94.713h97.205l-10.232 20.52h-76.74z"/><path d="M55.758 53.671h86.973" stroke="#003CC8" stroke-width="5" stroke-linecap="round" stroke-linejoin="round"/><path d="M127.383 71.627a2.562 2.562 0 0 0-2.558 2.565 2.562 2.562 0 0 0 2.558 2.565 2.56 2.56 0 0 0 2.558-2.565 2.56 2.56 0 0 0-2.558-2.565zm10.232 0a2.562 2.562 0 0 0-2.558 2.565 2.562 2.562 0 0 0 2.558 2.565 2.56 2.56 0 0 0 2.558-2.565 2.56 2.56 0 0 0-2.558-2.565z" fill="#FF5600" fill-rule="nonzero"/><path d="M40.41 84.452h117.67" stroke="#003CC8" stroke-width="5" stroke-linejoin="round"/><path d="M65.99 125.494c8.918 8.937-8.727 22.029 0 30.781m30.697-30.781c8.917 8.937-8.728 22.029 0 30.781m33.253-30.781c8.918 8.937-8.727 22.029 0 30.781" stroke="#FF5600" stroke-width="5" stroke-linecap="round" stroke-linejoin="round"/></g></svg>