<?xml version="1.0" encoding="UTF-8"?>
<svg width="64px" height="64px" viewBox="0 0 64 64" version="1.1" xmlns="http://www.w3.org/2000/svg" xmlns:xlink="http://www.w3.org/1999/xlink">
    <!-- Generator: Sketch 50.2 (55047) - http://www.bohemiancoding.com/sketch -->
    <title>icon-quote</title>
    <desc>Created with Sketch.</desc>
    <defs></defs>
    <g id="icon-quote" stroke="none" stroke-width="1" fill="none" fill-rule="evenodd" stroke-linejoin="round">
        <g id="calculator-3" transform="translate(12.000000, 7.000000)" stroke-width="3">
            <path d="M39.2795139,44.53125 C39.2795139,47.515191 36.8381076,49.9565972 33.8541667,49.9565972 L5.64236111,49.9565972 C2.65842014,49.9565972 0.217013889,47.515191 0.217013889,44.53125 L0.217013889,5.46875 C0.217013889,2.48480903 2.65842014,0.0434027778 5.64236111,0.0434027778 L33.8541667,0.0434027778 C36.8381076,0.0434027778 39.2795139,2.48480903 39.2795139,5.46875 L39.2795139,44.53125 Z" id="Shape" stroke="#0036D0"></path>
            <path d="M34.9392361,11.1241319 C34.9392361,12.1918403 34.0668403,13.0642361 32.9969618,13.0642361 L6.49956597,13.0642361 C5.4296875,13.0642361 4.55729167,12.1918403 4.55729167,11.1241319 L4.55729167,6.32595486 C4.55729167,5.25607639 5.4296875,4.38368056 6.49956597,4.38368056 L32.9991319,4.38368056 C34.0668403,4.38368056 34.9414063,5.25607639 34.9414063,6.32595486 L34.9414063,11.1241319 L34.9392361,11.1241319 Z" id="Shape" stroke="#0036D0"></path>
            <path d="M0.217013889,32.5954861 L39.2795139,32.5954861" id="Shape" stroke="#0036D0"></path>
            <path d="M0.217013889,17.4045139 L39.2795139,17.4045139" id="Shape" stroke="#0036D0"></path>
            <path d="M19.7482639,17.4045139 L19.7482639,49.9565972" id="Shape" stroke="#0036D0"></path>
            <path d="M5.64236111,26.0850694 L12.1527778,26.0850694" id="Shape" stroke="#FF5600" stroke-linecap="round"></path>
            <path d="M26.2586806,26.0850694 L32.7690972,26.0850694" id="Shape" stroke="#FF5600" stroke-linecap="round"></path>
            <path d="M26.2586806,43.4461806 L32.7690972,43.4461806" id="Shape" stroke="#FF5600" stroke-linecap="round"></path>
            <path d="M26.2586806,39.1059028 L32.7690972,39.1059028" id="Shape" stroke="#FF5600" stroke-linecap="round"></path>
            <path d="M8.89756944,22.8298611 L8.89756944,29.3402778" id="Shape" stroke="#FF5600" stroke-linecap="round"></path>
            <path d="M5.64236111,38.0208333 L12.1527778,44.53125" id="Shape" stroke="#FF5600" stroke-linecap="round"></path>
            <path d="M12.1527778,38.0208333 L5.64236111,44.53125" id="Shape" stroke="#FF5600" stroke-linecap="round"></path>
        </g>
    </g>
</svg>