<?xml version="1.0" encoding="UTF-8"?>
<svg width="50px" height="50px" viewBox="0 0 50 50" version="1.1" xmlns="http://www.w3.org/2000/svg" xmlns:xlink="http://www.w3.org/1999/xlink">
    <!-- Generator: Sketch 50.2 (55047) - http://www.bohemiancoding.com/sketch -->
    <title>icon-card</title>
    <desc>Created with Sketch.</desc>
    <defs></defs>
    <g id="icon-card" stroke="none" stroke-width="1" fill="none" fill-rule="evenodd" stroke-linecap="round" stroke-linejoin="round">
        <g id="name-id-tag-license-identity-office-1" transform="translate(2.000000, 4.000000)" stroke-width="3">
            <g id="XMLID_1573_" transform="translate(6.000000, 14.000000)" stroke="#0036D0">
                <path d="M36.9802517,27.9678428 L3.01974069,27.9678428 C1.36481043,27.9678428 0.0232246086,26.6277833 0.0232246086,24.9747394 L0.0232246086,3.0253121 C0.0232246086,1.37226636 1.36481043,0.032208651 3.01974069,0.032208651 L36.9802517,0.032208651 C38.635184,0.032208651 39.9767674,1.37226636 39.9767674,3.0253121 L39.9767674,24.9747394 C39.9767674,26.6277831 38.635184,27.9678428 36.9802517,27.9678428 Z" id="XMLID_1575_"></path>
            </g>
            <g id="XMLID_1568_" stroke="#0036D0">
                <path d="M40.0238095,13.3763805 L33.1847332,1.45722057 C32.4008084,0.0909840053 30.6645334,-0.377230403 29.3066341,0.411623134 L1.44213664,16.5991811 C0.0842356133,17.3880346 -0.3809174,19.1350809 0.403007442,20.501434 L5.75518089,29.8291806" id="XMLID_1569_"></path>
            </g>
            <path d="M31,32 L39,32" id="XMLID_1567_" stroke="#FF5600"></path>
            <path d="M29,26 L39,26" id="XMLID_1565_" stroke="#FF5600"></path>
            <circle id="XMLID_1574_" stroke="#FF5600" cx="18.5" cy="23.5" r="3.5"></circle>
            <path d="M18,31 C15.7760152,31 13.752718,31.7525788 12.4598132,32.3748932 C11.5652734,32.8054618 11,33.6624756 11,34.6051788 L11,35.0625 C11,35.5802688 11.4477158,36 12,36 L24,36 C24.5522842,36 25,35.5802688 25,35.0625 L25,34.6051788 C25,33.6624756 24.4347268,32.8054618 23.5401878,32.3748932 C22.247282,31.7525788 20.2239856,31 18,31 Z" id="XMLID_1572_" stroke="#FF5600"></path>
        </g>
    </g>
</svg>