<?xml version="1.0" encoding="UTF-8"?>
<svg width="50px" height="50px" viewBox="0 0 50 50" version="1.1" xmlns="http://www.w3.org/2000/svg" xmlns:xlink="http://www.w3.org/1999/xlink">
    <!-- Generator: Sketch 50.2 (55047) - http://www.bohemiancoding.com/sketch -->
    <title>icon-calendar</title>
    <desc>Created with Sketch.</desc>
    <defs></defs>
    <g id="icon-calendar" stroke="none" stroke-width="1" fill="none" fill-rule="evenodd">
        <g id="google-calendar" transform="translate(3.000000, 3.000000)">
            <path d="M43.0434783,26.5 L44.9715528,12.1212401 C44.9904989,11.9703843 45,11.8185007 45,11.6664712 L45,11.6664675 C45,9.64153304 43.3507522,8 41.3162998,8 L3.68370059,8 C1.64924902,8 0,9.64153304 0,11.6664675 L0,11.6664712 C0,11.8185007 0.00950047826,11.9703845 0.0284460652,12.1212401 L1.95652174,26.5 L0.0284460652,40.8787608 C0.00950047826,41.0296174 0,41.1814993 0,41.3335298 L0,41.3335335 C0,43.3584679 1.64924902,45 3.68370059,45 L41.3163002,45 C43.3507522,45 45,43.3584679 45,41.3335335 L45,41.3335298 C45,41.1814993 44.9904989,41.0296174 44.9715528,40.8787608 L43.0434783,26.5 Z" id="Shape" stroke="#0036D0" stroke-width="3" stroke-linecap="round" stroke-linejoin="round"></path>
            <path d="M2,8 L2,2.84388965 C2,1.27325281 3.31116614,0 4.92857143,0 L40.0714286,0 C41.6888325,0 43,1.27325281 43,2.84388965 L43,7.99991866" id="Shape" stroke="#0036D0" stroke-width="3" stroke-linecap="round" stroke-linejoin="round"></path>
            <path d="M12,22 C12,19.2385768 14.238576,17 17,17 C19.761424,17 22,19.2385768 22,22 C22,24.7614232 19.7614232,27 17,27" id="Shape" stroke="#FF5600" stroke-width="3" stroke-linecap="round" stroke-linejoin="round"></path>
            <path d="M12,32 C12,34.761425 14.238576,37 17,37 C19.761424,37 22,34.761425 22,32 C22,29.238575 19.7614232,27 17,27" id="Shape" stroke="#FF5600" stroke-width="3" stroke-linecap="round" stroke-linejoin="round"></path>
            <polyline id="Shape" stroke="#FF5600" stroke-width="3" stroke-linecap="round" stroke-linejoin="round" points="27 21 33 17 33 37"></polyline>
            <circle id="Oval" fill="#0036D0" fill-rule="nonzero" cx="12" cy="4" r="1"></circle>
            <circle id="Oval" fill="#0036D0" fill-rule="nonzero" cx="33" cy="4" r="1"></circle>
        </g>
    </g>
</svg>