<?xml version="1.0" encoding="UTF-8"?>
<svg width="50px" height="50px" viewBox="0 0 50 50" version="1.1" xmlns="http://www.w3.org/2000/svg" xmlns:xlink="http://www.w3.org/1999/xlink">
    <!-- Generator: Sketch 50.2 (55047) - http://www.bohemiancoding.com/sketch -->
    <title>icon-training</title>
    <desc>Created with Sketch.</desc>
    <defs></defs>
    <g id="icon-training" stroke="none" stroke-width="1" fill="none" fill-rule="evenodd" stroke-linecap="round" stroke-linejoin="round">
        <g id="support-user-hold-care" transform="translate(3.000000, 3.000000)" stroke-width="3">
            <circle id="XMLID_1359_" stroke="#FF5600" cx="31.5" cy="5.5" r="5.5"></circle>
            <path d="M31.5,15 C27.5285994,15 23.9155675,16.5051556 21.6068083,17.7497826 C20.0094165,18.61092 19,20.3249474 19,22.2103558 L19,23.125 C19,24.160534 19.7994908,25 20.7857148,25 L42.2142852,25 C43.2005092,25 44,24.160534 44,23.125 L44,22.2103558 C44,20.3249474 42.9905835,18.61092 41.39319,17.7497826 C39.0844325,16.5051556 35.4714006,15 31.5,15 Z" id="XMLID_1358_" stroke="#FF5600"></path>
            <path d="M0,25 L7.516126,26.5271444 C8.4766436,26.7223037 9.11977858,27.6457739 8.98125091,28.6308974 L7.60890615,38.3901668 C7.47901364,39.3138801 6.7003027,40 5.78182271,40 L0,40 L0,25 Z" id="XMLID_1406_" stroke="#0036D0"></path>
            <path d="M10,28.9986986 C10,28.9986986 12.7045451,28 15.7272727,28 C18.7500003,28 20.4792465,30.181152 24.3181818,30.9960958 C28.4346591,31.8699571 31,32.8686557 31,34.9908902 C31,37.1131247 27.8977273,38.174242 17.6363636,34.9908902" id="XMLID_1405_" stroke="#0036D0"></path>
            <path d="M30.7567568,35 C30.7567568,35 36.9054054,33 39.2702703,33 C41.6351351,33 44,34 44,36 C40.7680168,37.5 29.4954949,44 25.0810811,44 C20.6666673,44 9,38 9,38" id="XMLID_1404_" stroke="#0036D0"></path>
        </g>
    </g>
</svg>