<?xml version="1.0" encoding="UTF-8"?>
<svg width="50px" height="50px" viewBox="0 0 50 50" version="1.1" xmlns="http://www.w3.org/2000/svg" xmlns:xlink="http://www.w3.org/1999/xlink">
    <!-- Generator: Sketch 50.2 (55047) - http://www.bohemiancoding.com/sketch -->
    <title>icon-calculator</title>
    <desc>Created with Sketch.</desc>
    <defs></defs>
    <g id="icon-calculator" stroke="none" stroke-width="1" fill="none" fill-rule="evenodd" stroke-linecap="round" stroke-linejoin="round">
        <g id="calculator-electronic-financial-education-finance-calculate" transform="translate(2.000000, 2.000000)" stroke-width="3">
            <g id="XMLID_1405_">
                <path d="M43.7088975,24.1923902 L43.7088975,3.38104449 C43.7088975,1.57516279 42.2449533,0.111218569 40.4390716,0.111218569 L3.38104449,0.111218569 C1.57516279,0.111218569 0.111218569,1.57516279 0.111218569,3.38104449 L0.111218569,40.4390716 C0.111218569,42.2449533 1.57516279,43.7088975 3.38104449,43.7088975 L24.1923902,43.7088975" id="XMLID_1414_" stroke="#0036D0"></path>
                <circle id="XMLID_1413_" stroke="#0036D0" cx="31.7195358" cy="31.7195358" r="14.1692456"></circle>
                <path d="M6.65087041,11.0106383 L15.3704062,11.0106383" id="XMLID_1412_" stroke="#0036D0"></path>
                <path d="M11.0106383,15.3704062 L11.0106383,6.65087041" id="XMLID_1411_" stroke="#0036D0"></path>
                <path d="M37.1692456,11.0106383 L28.4497099,11.0106383" id="XMLID_1410_" stroke="#0036D0"></path>
                <path d="M7.74081238,29.5396518 L14.2804642,36.0793037" id="XMLID_1409_" stroke="#0036D0"></path>
                <path d="M7.74081238,36.0793037 L14.2804642,29.5396518" id="XMLID_1408_" stroke="#0036D0"></path>
                <path d="M26.2698259,28.4497099 L37.1692456,28.4497099" id="XMLID_1407_" stroke="#FF5600"></path>
                <path d="M26.2698259,34.9893617 L37.1692456,34.9893617" id="XMLID_1406_" stroke="#FF5600"></path>
            </g>
            <path d="M0.49375288,22 L20.5060967,22" id="XMLID_1417_" stroke="#0036D0"></path>
            <path d="M22,20.5060967 L22,0.49375288" id="XMLID_1415_" stroke="#0036D0"></path>
        </g>
    </g>
</svg>