<?xml version="1.0" encoding="UTF-8"?>
<svg width="50px" height="50px" viewBox="0 0 50 50" version="1.1" xmlns="http://www.w3.org/2000/svg" xmlns:xlink="http://www.w3.org/1999/xlink">
    <!-- Generator: Sketch 50.2 (55047) - http://www.bohemiancoding.com/sketch -->
    <title>icon-team copy</title>
    <desc>Created with Sketch.</desc>
    <defs></defs>
    <g id="icon-team-copy" stroke="none" stroke-width="1" fill="none" fill-rule="evenodd">
        <g id="icon-business" transform="translate(1.000000, 2.000000)">
            <g id="Group" transform="translate(1.000000, 1.000000)" stroke-linecap="round" stroke-linejoin="round" stroke-width="3">
                <g transform="translate(0.000000, 13.971955)" id="Shape" stroke="#003CC8">
                    <path d="M0.0939542484,30.0340545 L45.9060458,30.0340545"></path>
                    <polyline points="8.06127451 30.0340545 8.06127451 20.0540865 2.08578431 20.0540865 2.08578431 30.0340545"></polyline>
                    <polyline points="20.0122549 30.0340545 20.0122549 10.0741186 14.0367647 10.0741186 14.0367647 30.0340545"></polyline>
                    <polyline points="31.9632353 30.0340545 31.9632353 14.0661058 25.9877451 14.0661058 25.9877451 30.0340545"></polyline>
                    <polyline points="43.9142157 30.0340545 43.9142157 0.094150641 37.9387255 0.094150641 37.9387255 30.0340545"></polyline>
                </g>
                <g transform="translate(5.073529, 0.000000)" id="Shape" stroke="#FF5600">
                    <polyline points="36.8488562 0.094150641 23.9019608 14.0661058 11.9509804 10.0741186 0 20.0540865"></polyline>
                    <polyline points="28.8815359 0.094150641 36.8488562 0.094150641 36.8488562 8.078125"></polyline>
                </g>
            </g>
            <g id="Group">
                <rect id="Rectangle-path" x="0" y="0" width="48" height="48"></rect>
            </g>
        </g>
    </g>
</svg>