<?xml version="1.0" encoding="UTF-8"?>
<svg width="50px" height="50px" viewBox="0 0 50 50" version="1.1" xmlns="http://www.w3.org/2000/svg" xmlns:xlink="http://www.w3.org/1999/xlink">
    <!-- Generator: Sketch 50.2 (55047) - http://www.bohemiancoding.com/sketch -->
    <title>icon-team</title>
    <desc>Created with Sketch.</desc>
    <defs></defs>
    <g id="icon-team" stroke="none" stroke-width="1" fill="none" fill-rule="evenodd">
        <g transform="translate(1.000000, 1.000000)" id="Group">
            <g transform="translate(1.000000, 4.000000)" stroke-linejoin="round" stroke-width="3">
                <path d="M0.110576923,14.031746 L0.110576923,20 C0.110576923,21.6412698 0.458894231,22.984127 2.10096154,22.984127 L2.10096154,31.9365079 L8.07211538,31.9365079 L8.07211538,22.984127 C9.71219231,22.984127 10.0605096,21.6392804 10.0625,20 L10.0625,14.031746 L0.110576923,14.031746 Z" id="Shape" stroke="#003CC8"></path>
                <path d="M35.9375,14.031746 L35.9375,20 C35.9375,21.6412698 36.2858173,22.984127 37.9278846,22.984127 L37.9278846,31.9365079 L43.8990385,31.9365079 L43.8990385,22.984127 C45.5391154,22.984127 45.8874327,21.6392804 45.8894231,20 L45.8894231,14.031746 L35.9375,14.031746 Z" id="Shape" stroke="#003CC8"></path>
                <path d="M16.0336538,14.031746 L29.9663462,14.031746 L29.9663462,23.978836 C29.9663462,26.1671958 28.175,27.957672 25.9855769,27.957672 L25.9855769,39.8941799 L20.0144231,39.8941799 L20.0144231,27.957672 C17.8230096,27.957672 16.0336538,26.1671958 16.0336538,23.978836 L16.0336538,14.031746 Z" id="Shape" stroke="#FF5600"></path>
                <path d="M8.07211538,7.06878307 C8.07211538,8.71602116 6.73457692,10.0529101 5.08653846,10.0529101 C3.4385,10.0529101 2.10096154,8.71602116 2.10096154,7.06878307 C2.10096154,5.42154497 3.4385,4.08465608 5.08653846,4.08465608 C6.73457692,4.08465608 8.07211538,5.42154497 8.07211538,7.06878307 Z" id="Shape" stroke="#003CC8"></path>
                <path d="M43.8990385,7.06878307 C43.8990385,8.71602116 42.5615,10.0529101 40.9134615,10.0529101 C39.2654231,10.0529101 37.9278846,8.71602116 37.9278846,7.06878307 C37.9278846,5.42154497 39.2654231,4.08465608 40.9134615,4.08465608 C42.5615,4.08465608 43.8990385,5.42154497 43.8990385,7.06878307 Z" id="Shape" stroke="#003CC8"></path>
                <path d="M27.9759615,5.07936508 C27.9759615,7.82675132 25.7487212,10.0529101 23,10.0529101 C20.2512788,10.0529101 18.0240385,7.82675132 18.0240385,5.07936508 C18.0240385,2.33197884 20.2512788,0.105820106 23,0.105820106 C25.7487212,0.105820106 27.9759615,2.33197884 27.9759615,5.07936508 Z" id="Shape" stroke="#FF5600"></path>
            </g>
            <g>
                <rect id="Rectangle-path" x="0" y="0" width="48" height="48"></rect>
            </g>
        </g>
    </g>
</svg>